<?xml version="1.0" encoding="utf-8"?>

<!DOCTYPE svg PUBLIC "-//W3C//DTD SVG 1.1//EN" "http://www.w3.org/Graphics/SVG/1.1/DTD/svg11.dtd">
<!-- Uploaded to: SVG Repo, www.svgrepo.com, Generator: SVG Repo Mixer Tools -->
<svg height="800px" width="800px" version="1.1" id="_x32_" xmlns="http://www.w3.org/2000/svg" xmlns:xlink="http://www.w3.org/1999/xlink" 
	 viewBox="0 0 512 512"  xml:space="preserve">
<style type="text/css">
	.st0{fill:#000000;}
</style>
<g>
	<path class="st0" d="M430.985,8.783c-13.608-9.662-31.291-11.488-46.593-4.804l-31.319,13.68
		c-20.14,8.798-37.127,23.518-48.693,42.204L171.217,275.019l-30.919,43.574l-25.624,10.505
		c-34.768,14.256-56.368,49.325-53.454,86.782l14.072,94.359L77.73,512l93.179-19.318c36.129-10.316,61.48-42.759,62.743-80.314
		l0.899-26.895l30.92-43.566l159.11-196.757c13.82-17.086,22.099-37.977,23.756-59.893l2.57-34.086
		C452.158,34.527,444.602,18.446,430.985,8.783z M216.49,411.792c-1.011,30.014-20.962,55.743-49.725,64.212l-67.291,13.953
		l30.712-43.292c11.281,3.925,24.223,0.267,31.488-9.957c8.806-12.416,5.884-29.606-6.524-38.412
		c-12.408-8.806-29.606-5.885-38.412,6.531c-7.258,10.224-6.436,23.65,1,33.004L88.084,479.62l-9.785-65.637
		c-2.086-29.922,15.091-57.596,42.885-68.987l16.889-6.931l79.008,56.059L216.49,411.792z M220.549,375.536l-66.241-47
		l20.976-29.578l66.248,47.007L220.549,375.536z M356.388,66.422L212.803,278.446l-6.839-4.852L320.7,85.958
		c9.108-14.901,22.724-26.235,39.36-32.78l10.028-3.946C365.13,54.548,360.538,60.292,356.388,66.422z"/>
</g>
</svg>