<svg xmlns="http://www.w3.org/2000/svg" height="40" width="40" viewBox="0 0 72.12 114.5">
  <defs></defs>
  <style type="text/css">
      .st0{fill:#2f3193;}
  </style>
  <path class="cls-1 st0"
        d="M58.85,53s20.38-3.5,27.88-8.37c0,0-6.78-.69-33.25,6.31,0,0-.09-4.6-.86-30.48l9.48-.08,2.75,2.12h6.38l-2.5-3.25,2.75-2.62-7,.12-2.25,1.75-9.61-.12s.17-9.42-1.33-15c0,0-1.63,5.37-1.56,15H39.48s-.75,0,0-2L32.1,19.63l7,2.91a3.28,3.28,0,0,1,0-2.25l10.38.13s-.38,14.37-.63,30.5c0,0-24.12-7.19-34.25-6.56,0,0,5.25,3.81,28.13,8.81,0,0-23.5,5.75-28.13,8.87,0,0,5.88,1.13,34-6.37l.13,30.67s-13.16,2.13-13.07,14.88c.13,16.84,15.8,16.65,15.8,16.65s15.78.19,15.72-14.82S54,86.25,54,86.42s.1-27.63,0-30.75c0,0,22.93,7.87,32.75,6.75C86.73,62.42,84.91,60.11,58.85,53Z"
        transform="translate(-14.6 -3.38)"></path>
</svg>