<?xml version="1.0" encoding="UTF-8"?>
<svg id="Layer_1" data-name="Layer 1" xmlns="http://www.w3.org/2000/svg" viewBox="0 0 502.66 70.2">
  <path d="M33.15,48.3c-.34-.34-.58-.59-.73-.76-.15-.17-.32-.36-.5-.59-.19-.22-.42-.55-.7-.98-.28-.43-.72-1.07-1.32-1.93-.71-1.04-1.34-1.99-1.88-2.83-.54-.84-1.09-1.67-1.65-2.49s-1.17-1.65-1.82-2.49-1.43-1.78-2.32-2.83c-.75-.86-1.56-1.66-2.44-2.41-.88-.75-1.8-1.21-2.77-1.4-.71-.15-1.25-.22-1.62-.22-.34,0-.77-.02-1.29-.06v6.33c0,1.79.02,3.3.06,4.54.04,1.2.07,2.22.11,3.08.04.86.24,1.57.62,2.13.3.49.88.98,1.74,1.48.86.5,2.05.79,3.58.87v.56H2.3v-.56c.93-.15,1.83-.37,2.69-.67.86-.3,1.53-.75,2.02-1.34.19-.22.34-.56.45-1.01.11-.45.2-.95.25-1.51.06-.56.1-1.16.14-1.79.04-.63.06-1.25.06-1.85,0-.52,0-1.23.03-2.13.02-.9.04-1.88.06-2.94.02-1.06.03-2.16.03-3.28v-14.17c0-.67,0-1.35-.03-2.04-.02-.69-.06-1.34-.11-1.96-.06-.62-.15-1.18-.28-1.68s-.31-.87-.53-1.09c-.56-.6-1.19-1-1.88-1.2-.69-.2-1.54-.38-2.55-.53v-.56h2.3c1.27,0,2.71,0,4.31-.03,1.6-.02,3.21-.03,4.82-.03h3.92c2.5,0,4.72.08,6.66.22,1.94.15,3.71.65,5.32,1.51,1.64.86,2.97,2.03,3.98,3.5,1.01,1.48,1.51,3.33,1.51,5.57,0,1.38-.25,2.62-.76,3.72-.5,1.1-1.18,2.07-2.02,2.91-.84.84-1.82,1.56-2.94,2.16-1.12.6-2.3,1.1-3.53,1.51v.17c.63.34,1.25.82,1.85,1.46.6.64,1.18,1.34,1.74,2.13.97,1.42,2.02,2.95,3.16,4.59,1.14,1.64,2.16,3.1,3.05,4.37,1.38,1.94,2.72,3.36,4.03,4.26,1.31.9,2.84,1.47,4.59,1.74v.56h-11.48ZM27.61,13.41c-.93-1.46-2.3-2.61-4.09-3.47-.9-.41-1.84-.71-2.83-.9-.99-.19-2.03-.28-3.11-.28-.78,0-1.42.02-1.9.06-.49.04-.86.08-1.12.11-.04.22-.08.42-.11.59-.04.17-.07.38-.08.64-.02.26-.04.63-.06,1.09-.02.47-.05,1.13-.08,1.99-.04,1.31-.07,2.78-.08,4.42-.02,1.64-.03,3.23-.03,4.76v6.16c1.53,0,2.96-.06,4.28-.2,1.32-.13,2.6-.4,3.84-.81,1.19-.37,2.22-.88,3.08-1.51.86-.63,1.56-1.35,2.1-2.16.54-.8.94-1.67,1.2-2.6.26-.93.39-1.9.39-2.91,0-1.87-.47-3.53-1.4-4.98Z" style="fill: #fff; stroke-width: 0px;"/>
  <path d="M44.24,48.3v-.56c.45-.04.9-.08,1.34-.14.45-.06.85-.15,1.2-.28.35-.13.65-.31.9-.53.24-.22.36-.5.36-.84v-19.21c0-.3-.03-.56-.08-.78-.06-.22-.22-.43-.48-.62-.34-.22-.74-.45-1.2-.67-.47-.22-.96-.43-1.48-.62v-.34l7.56-2.46h.34v25.03c.07.37.23.64.48.81.24.17.53.29.87.36s.7.12,1.09.14c.39.02.77.07,1.15.14v.56h-12.04ZM52.28,14.56c-.58.58-1.3.87-2.16.87s-1.53-.3-2.13-.9c-.6-.6-.9-1.31-.9-2.13s.29-1.57.87-2.13c.58-.56,1.3-.84,2.16-.84s1.58.28,2.16.84c.58.56.87,1.27.87,2.13s-.29,1.58-.87,2.16Z" style="fill: #fff; stroke-width: 0px;"/>
  <path d="M81.2,43.46c-.67.99-1.49,1.87-2.46,2.63-.97.77-2.06,1.35-3.28,1.76-1.21.41-2.53.62-3.95.62-1.79,0-3.45-.34-4.98-1.04-1.53-.69-2.84-1.66-3.92-2.91-1.08-1.25-1.93-2.72-2.55-4.4-.62-1.68-.92-3.47-.92-5.38,0-1.79.32-3.5.95-5.12.63-1.62,1.51-3.05,2.63-4.28s2.45-2.22,4-2.97c1.55-.75,3.24-1.12,5.07-1.12,1.23,0,2.44.15,3.64.45,1.19.3,2.26.73,3.19,1.29.93.56,1.69,1.25,2.27,2.07.58.82.87,1.77.87,2.86,0,.78-.29,1.47-.87,2.04-.58.58-1.26.87-2.04.87-.64,0-1.2-.19-1.71-.56-.5-.37-.83-.84-.98-1.4.19-.52.28-1.16.28-1.9,0-1.38-.36-2.53-1.09-3.44-.73-.91-1.88-1.37-3.44-1.37-1.16,0-2.22.3-3.19.9-.97.6-1.81,1.4-2.52,2.41-.71,1.01-1.27,2.18-1.68,3.53-.41,1.34-.62,2.78-.62,4.31,0,1.68.22,3.22.67,4.62.45,1.4,1.08,2.6,1.9,3.58.82.99,1.82,1.76,3,2.3s2.49.81,3.95.81c2.31,0,4.14-.38,5.49-1.15,1.34-.76,2.46-1.89,3.36-3.39l.45.22c-.34,1.12-.84,2.17-1.51,3.16Z" style="fill: #fff; stroke-width: 0px;"/>
  <path d="M100.02,48.3v-.62c1.01-.07,1.85-.2,2.52-.36.67-.17,1.01-.55,1.01-1.15v-14c0-1.08-.08-2.09-.22-3.02-.15-.93-.42-1.74-.81-2.41-.39-.67-.92-1.19-1.6-1.57-.67-.37-1.53-.56-2.58-.56-1.34,0-2.48.24-3.42.73-.93.49-1.68,1.14-2.24,1.96-.08.11-.18.35-.31.7-.13.35-.2.68-.2.98v17.19c0,.34.09.6.28.78.19.19.43.33.73.42s.63.16,1.01.2c.37.04.75.09,1.12.17v.56h-11.14v-.56c.86-.07,1.63-.21,2.32-.42.69-.2,1.04-.66,1.04-1.37V14.14c0-.3-.03-.52-.08-.67-.06-.15-.21-.32-.48-.5-.3-.26-.7-.51-1.2-.76-.5-.24-1-.51-1.48-.81v-.34l7.5-3.42h.45l-.17,19.43.11.06c.26-.52.66-1.12,1.2-1.79.54-.67,1.22-1.31,2.04-1.9.82-.6,1.76-1.11,2.82-1.54,1.06-.43,2.22-.64,3.49-.64s2.26.22,3.1.64c.84.43,1.51,1.03,2.01,1.79.5.77.86,1.67,1.06,2.72.2,1.05.31,2.18.31,3.42v16.52c0,.26.11.49.34.67.22.19.5.33.84.42.34.09.69.17,1.06.22.37.06.73.1,1.06.14v.5h-11.48Z" style="fill: #fff; stroke-width: 0px;"/>
  <path d="M138.21,44.88c-.3.67-.69,1.28-1.18,1.82-.49.54-1.06.95-1.71,1.23-.65.28-1.37.42-2.16.42-1.27,0-2.4-.37-3.39-1.12-.99-.75-1.48-2.05-1.48-3.92l-.11-.06c-.3.49-.7,1.03-1.2,1.62-.5.6-1.1,1.16-1.79,1.68-.69.52-1.46.94-2.3,1.26-.84.32-1.76.48-2.77.48-.6,0-1.2-.08-1.82-.25s-1.18-.47-1.68-.9c-.5-.43-.92-.98-1.23-1.65-.32-.67-.48-1.49-.48-2.46,0-1.04.42-2.05,1.26-3.02s1.88-1.85,3.11-2.63c1.23-.78,2.32-1.46,3.28-2.02s1.78-1.04,2.49-1.43c.71-.39,1.33-.73,1.88-1.01.54-.28,1-.53,1.37-.76v-5.77c0-.07-.07-.25-.2-.53-.13-.28-.36-.57-.67-.87-.32-.3-.76-.57-1.32-.81-.56-.24-1.29-.36-2.18-.36-.6,0-1.19.1-1.76.31-.58.21-1.09.47-1.54.78-.45.32-.8.64-1.06.95-.26.32-.39.59-.39.81v2.52c0,.52-.27.99-.81,1.4-.54.41-1.13.62-1.76.62-.6,0-1.11-.21-1.54-.64-.43-.43-.64-.92-.64-1.48,0-.45.11-.86.34-1.23.22-.37.5-.71.84-1.01.34-.3.7-.56,1.09-.78.39-.22.74-.43,1.04-.62.97-.56,1.96-1.1,2.97-1.62,1.01-.52,1.97-.97,2.88-1.34.92-.37,1.75-.67,2.52-.9.76-.22,1.39-.34,1.88-.34.97,0,1.88.25,2.74.76.86.5,1.47,1.13,1.85,1.88.15.26.24.72.28,1.37.04.65.06,1.3.06,1.93,0,1.34,0,2.56-.03,3.64-.02,1.08-.03,2.13-.03,3.14s0,2.04-.03,3.11c-.02,1.06-.03,2.23-.03,3.5,0,1.68.29,2.79.87,3.33.58.54,1.24.81,1.99.81.86,0,1.49-.18,1.9-.53.41-.35.69-.81.84-1.37h.34c-.04.71-.21,1.4-.5,2.07ZM128.3,33.07c-.67.49-1.51,1-2.52,1.54-1.01.54-1.99,1.13-2.94,1.76-.95.64-1.77,1.34-2.46,2.1-.69.77-1.04,1.63-1.04,2.6s.34,1.85,1.01,2.63c.67.78,1.55,1.18,2.63,1.18.97,0,1.83-.11,2.58-.34.75-.22,1.44-.65,2.07-1.29.45-.41.67-.93.67-1.57v-8.62Z" style="fill: #fff; stroke-width: 0px;"/>
  <path d="M158.14,26.26c-.49.54-1.05.81-1.68.81-.6,0-1.07-.1-1.43-.31-.36-.2-.66-.44-.92-.7-.26-.26-.54-.49-.84-.7-.3-.2-.71-.31-1.23-.31-.45,0-.89.16-1.32.48-.43.32-.83.72-1.2,1.2-.37.49-.71,1.04-1.01,1.65-.3.62-.56,1.2-.78,1.76v16.13c.11.34.35.6.73.78.37.19.79.32,1.26.39.47.08.95.12,1.46.14.5.02.94.07,1.32.14v.56h-12.54v-.56c.86-.07,1.6-.24,2.21-.5.62-.26.92-.69.92-1.29v-18.93c0-.3-.03-.52-.08-.67-.06-.15-.21-.32-.48-.5-.34-.19-.73-.42-1.18-.7-.45-.28-.9-.51-1.34-.7v-.34l7.34-2.86h.34l-.11,7.78h.11c.19-.45.49-1.1.9-1.96.41-.86.93-1.73,1.57-2.6.63-.88,1.4-1.63,2.3-2.27.9-.63,1.92-.95,3.08-.95.93,0,1.73.28,2.38.84.65.56.98,1.27.98,2.13s-.24,1.5-.73,2.04Z" style="fill: #fff; stroke-width: 0px;"/>
  <path d="M180.43,48.47h-.34v-5.6h-.06c-1.08,1.87-2.36,3.25-3.84,4.14-1.48.9-3.31,1.34-5.52,1.34-1.38,0-2.72-.27-4-.81-1.29-.54-2.44-1.38-3.44-2.52-1.01-1.14-1.81-2.54-2.41-4.2-.6-1.66-.9-3.57-.9-5.74,0-1.94.34-3.75,1.04-5.43s1.66-3.15,2.91-4.4c1.25-1.25,2.75-2.23,4.51-2.94,1.75-.71,3.7-1.06,5.82-1.06,1.12,0,2.17.09,3.16.28.99.19,1.89.41,2.72.67-.04-.56-.07-1.32-.08-2.3-.02-.97-.03-1.96-.03-2.97v-4.76l-4.59-1.74v-.34l8.9-2.46h.45v36.34c.3.19.86.45,1.68.78s1.59.65,2.3.95v.39l-8.29,2.35ZM180.04,27.41c-.82-1.53-1.87-2.76-3.14-3.7-1.27-.93-2.45-1.4-3.53-1.4-1.46,0-2.7.34-3.72,1.01-1.03.67-1.88,1.57-2.55,2.69-.67,1.12-1.17,2.41-1.48,3.86-.32,1.46-.48,2.95-.48,4.48s.19,3.02.56,4.45c.37,1.44.93,2.71,1.68,3.81.75,1.1,1.67,1.99,2.77,2.66,1.1.67,2.38,1.01,3.84,1.01,1.53,0,2.85-.52,3.95-1.57,1.1-1.04,1.8-2.37,2.1-3.98v-13.33Z" style="fill: #fff; stroke-width: 0px;"/>
  <path d="M236.82,48.3v-.62c1.6-.07,2.95-.41,4.03-1.01,1.08-.6,1.81-1.29,2.18-2.07.22-.48.39-1.09.5-1.82.11-.73.19-1.46.22-2.21.07-2.46.11-4.82.11-7.06V10.72c-1.23,2.76-2.36,5.3-3.39,7.62-1.03,2.32-2.04,4.57-3.05,6.78-1.01,2.2-2.03,4.45-3.05,6.75s-2.16,4.83-3.39,7.59c-.19.37-.45.96-.78,1.76s-.67,1.62-1.01,2.46-.65,1.61-.95,2.3c-.3.69-.49,1.15-.56,1.37h-.34c-1.2-2.76-2.38-5.51-3.56-8.23-1.18-2.72-2.32-5.35-3.44-7.87-1.12-2.52-2.17-4.88-3.14-7.08-.97-2.2-1.85-4.16-2.63-5.88-.78-1.72-1.43-3.15-1.93-4.31-.5-1.16-.85-1.94-1.04-2.35,0,2.46,0,4.64-.03,6.52-.02,1.89-.04,3.75-.06,5.6-.02,1.85-.03,3.8-.03,5.85v7.17c0,1.75.06,3.28.17,4.56.11,1.29.39,2.37.84,3.25.45.88,1.13,1.57,2.04,2.07.91.5,2.17.87,3.78,1.09v.56h-14.62v-.56c1.31-.26,2.37-.64,3.19-1.15s1.47-1.2,1.96-2.1c.49-.9.84-2.01,1.06-3.33.22-1.32.35-2.94.39-4.84.07-1.6.13-3.5.17-5.68s.06-4.53.06-7.03v-7.06c0-.75-.02-1.66-.06-2.74-.04-1.04-.26-1.89-.67-2.55-.41-.65-.9-1.17-1.46-1.54-.56-.37-1.16-.64-1.79-.81s-1.18-.29-1.62-.36v-.56h11.93l13.38,30.46c1.64-3.55,3.25-7.07,4.82-10.58,1.57-3.51,2.98-6.68,4.23-9.52,1.25-2.84,2.28-5.2,3.08-7.08.8-1.88,1.26-2.98,1.37-3.28h11.93v.56c-1.53.04-2.7.35-3.5.95-.8.6-1.35,1.31-1.65,2.13-.22.64-.37,1.62-.45,2.97-.08,1.34-.13,2.67-.17,3.98-.04,1.79-.06,3.53-.06,5.21v11.14c0,1.98.02,4.07.06,6.27,0,.71.05,1.43.14,2.16.09.73.25,1.3.48,1.71.04.08.18.25.42.53.24.28.59.58,1.04.9.45.32,1.01.6,1.68.84.67.24,1.46.38,2.35.42v.56h-19.21Z" style="fill: #fff; stroke-width: 0px;"/>
  <path d="M281.57,43.46c-.67.99-1.49,1.87-2.46,2.63-.97.77-2.06,1.35-3.28,1.76-1.21.41-2.53.62-3.95.62-1.79,0-3.45-.34-4.98-1.04-1.53-.69-2.84-1.66-3.92-2.91-1.08-1.25-1.93-2.72-2.55-4.4-.62-1.68-.92-3.47-.92-5.38,0-1.79.32-3.5.95-5.12.63-1.62,1.51-3.05,2.63-4.28s2.45-2.22,4-2.97c1.55-.75,3.24-1.12,5.07-1.12,1.23,0,2.44.15,3.64.45,1.19.3,2.26.73,3.19,1.29.93.56,1.69,1.25,2.27,2.07.58.82.87,1.77.87,2.86,0,.78-.29,1.47-.87,2.04-.58.58-1.26.87-2.04.87-.64,0-1.2-.19-1.71-.56-.5-.37-.83-.84-.98-1.4.19-.52.28-1.16.28-1.9,0-1.38-.36-2.53-1.09-3.44-.73-.91-1.88-1.37-3.44-1.37-1.16,0-2.22.3-3.19.9-.97.6-1.81,1.4-2.52,2.41-.71,1.01-1.27,2.18-1.68,3.53-.41,1.34-.62,2.78-.62,4.31,0,1.68.22,3.22.67,4.62.45,1.4,1.08,2.6,1.9,3.58.82.99,1.82,1.76,3,2.3s2.49.81,3.95.81c2.31,0,4.14-.38,5.49-1.15,1.34-.76,2.46-1.89,3.36-3.39l.45.22c-.34,1.12-.84,2.17-1.51,3.16Z" style="fill: #fff; stroke-width: 0px;"/>
  <path d="M320.99,48.3h-35.95v-.56c.93-.15,1.86-.39,2.77-.73s1.63-.8,2.16-1.4c.19-.22.34-.55.48-.98.13-.43.23-.92.31-1.48.07-.56.14-1.15.2-1.76.06-.62.08-1.22.08-1.82,0-.52,0-1.23.03-2.13.02-.9.04-1.88.06-2.94.02-1.06.03-2.16.03-3.28V15.15c0-.67-.03-1.3-.08-1.88-.06-.58-.14-1.09-.25-1.54-.11-.45-.28-.8-.5-1.06-.52-.63-1.22-1.12-2.1-1.46-.88-.34-1.8-.56-2.77-.67v-.56h17.86v.56c-.49.08-1.06.19-1.74.34-.67.15-1.31.39-1.9.73-.6.34-1.11.81-1.54,1.43-.43.62-.66,1.43-.7,2.44-.04,1.31-.07,2.5-.08,3.58-.02,1.08-.04,2.15-.06,3.19-.02,1.05-.03,2.13-.03,3.25v10.19c0,.97,0,1.97.03,3,.02,1.03.03,2.17.03,3.44.04,1.19.08,2.33.14,3.42.06,1.08.25,1.88.59,2.41.15.19.45.37.9.56s.99.35,1.62.48c.63.13,1.33.24,2.07.34.75.09,1.49.14,2.24.14.3,0,.77,0,1.43-.03.65-.02,1.37-.06,2.16-.11.78-.06,1.59-.14,2.41-.25s1.55-.26,2.18-.45c1.49-.41,2.73-.95,3.72-1.62.99-.67,1.84-1.45,2.55-2.32s1.31-1.83,1.79-2.86c.49-1.03.95-2.1,1.4-3.22l.56.17-2.07,11.54Z" style="fill: #fff; stroke-width: 0px;"/>
  <path d="M348.88,44.88c-.3.67-.69,1.28-1.18,1.82-.49.54-1.06.95-1.71,1.23-.65.28-1.37.42-2.16.42-1.27,0-2.4-.37-3.39-1.12-.99-.75-1.48-2.05-1.48-3.92l-.11-.06c-.3.49-.7,1.03-1.2,1.62-.5.6-1.1,1.16-1.79,1.68-.69.52-1.46.94-2.3,1.26-.84.32-1.76.48-2.77.48-.6,0-1.2-.08-1.82-.25s-1.18-.47-1.68-.9c-.5-.43-.92-.98-1.23-1.65-.32-.67-.48-1.49-.48-2.46,0-1.04.42-2.05,1.26-3.02s1.88-1.85,3.11-2.63c1.23-.78,2.32-1.46,3.28-2.02s1.78-1.04,2.49-1.43c.71-.39,1.33-.73,1.88-1.01.54-.28,1-.53,1.37-.76v-5.77c0-.07-.07-.25-.2-.53-.13-.28-.36-.57-.67-.87-.32-.3-.76-.57-1.32-.81-.56-.24-1.29-.36-2.18-.36-.6,0-1.19.1-1.76.31-.58.21-1.09.47-1.54.78-.45.32-.8.64-1.06.95-.26.32-.39.59-.39.81v2.52c0,.52-.27.99-.81,1.4-.54.41-1.13.62-1.76.62-.6,0-1.11-.21-1.54-.64-.43-.43-.64-.92-.64-1.48,0-.45.11-.86.34-1.23.22-.37.5-.71.84-1.01.34-.3.7-.56,1.09-.78.39-.22.74-.43,1.04-.62.97-.56,1.96-1.1,2.97-1.62,1.01-.52,1.97-.97,2.88-1.34.92-.37,1.75-.67,2.52-.9.76-.22,1.39-.34,1.88-.34.97,0,1.88.25,2.74.76.86.5,1.47,1.13,1.85,1.88.15.26.24.72.28,1.37.04.65.06,1.3.06,1.93,0,1.34,0,2.56-.03,3.64-.02,1.08-.03,2.13-.03,3.14s0,2.04-.03,3.11c-.02,1.06-.03,2.23-.03,3.5,0,1.68.29,2.79.87,3.33.58.54,1.24.81,1.99.81.86,0,1.49-.18,1.9-.53.41-.35.69-.81.84-1.37h.34c-.04.71-.21,1.4-.5,2.07ZM338.97,33.07c-.67.49-1.51,1-2.52,1.54-1.01.54-1.99,1.13-2.94,1.76-.95.64-1.77,1.34-2.46,2.1-.69.77-1.04,1.63-1.04,2.6s.34,1.85,1.01,2.63c.67.78,1.55,1.18,2.63,1.18.97,0,1.83-.11,2.58-.34.75-.22,1.44-.65,2.07-1.29.45-.41.67-.93.67-1.57v-8.62Z" style="fill: #fff; stroke-width: 0px;"/>
  <path d="M369.38,48.36h-.39v-5.66l-.06-.06c-.41.64-.92,1.31-1.51,2.02-.6.71-1.27,1.35-2.02,1.93-.75.58-1.58,1.04-2.49,1.37-.92.34-1.9.5-2.94.5-2.39,0-4.15-.71-5.29-2.13s-1.71-3.49-1.71-6.22v-14.28c0-.26-.02-.53-.06-.81-.04-.28-.07-.54-.08-.78-.02-.24-.07-.42-.14-.53-.15-.34-.36-.58-.64-.73-.28-.15-.59-.26-.92-.34-.34-.07-.69-.12-1.06-.14-.37-.02-.73-.05-1.06-.08v-.62h8.62v16.3c0,2.46.37,4.28,1.12,5.46s2.16,1.76,4.22,1.76c.79,0,1.47-.1,2.05-.31.58-.21,1.11-.47,1.58-.78.47-.32.9-.68,1.29-1.09.39-.41.76-.84,1.1-1.29v-15.96c0-.37-.04-.85-.11-1.43-.08-.58-.22-1.02-.45-1.32-.45-.19-1.05-.34-1.82-.45-.77-.11-1.56-.21-2.38-.28v-.62h9.41v22.12c0,.3.03.52.08.67.06.15.21.32.48.5.34.19.83.43,1.48.73s1.2.54,1.65.73v.34l-7.95,1.46Z" style="fill: #fff; stroke-width: 0px;"/>
  <path d="M402.02,43.46c-.67.99-1.49,1.87-2.46,2.63-.97.77-2.06,1.35-3.28,1.76-1.21.41-2.53.62-3.95.62-1.79,0-3.45-.34-4.98-1.04-1.53-.69-2.84-1.66-3.92-2.91-1.08-1.25-1.93-2.72-2.55-4.4-.62-1.68-.92-3.47-.92-5.38,0-1.79.32-3.5.95-5.12.63-1.62,1.51-3.05,2.63-4.28s2.45-2.22,4-2.97c1.55-.75,3.24-1.12,5.07-1.12,1.23,0,2.44.15,3.64.45,1.19.3,2.26.73,3.19,1.29.93.56,1.69,1.25,2.27,2.07.58.82.87,1.77.87,2.86,0,.78-.29,1.47-.87,2.04-.58.58-1.26.87-2.04.87-.64,0-1.2-.19-1.71-.56-.5-.37-.83-.84-.98-1.4.19-.52.28-1.16.28-1.9,0-1.38-.36-2.53-1.09-3.44-.73-.91-1.88-1.37-3.44-1.37-1.16,0-2.22.3-3.19.9-.97.6-1.81,1.4-2.52,2.41-.71,1.01-1.27,2.18-1.68,3.53-.41,1.34-.62,2.78-.62,4.31,0,1.68.22,3.22.67,4.62.45,1.4,1.08,2.6,1.9,3.58.82.99,1.82,1.76,3,2.3s2.49.81,3.95.81c2.31,0,4.14-.38,5.49-1.15,1.34-.76,2.46-1.89,3.36-3.39l.45.22c-.34,1.12-.84,2.17-1.51,3.16Z" style="fill: #fff; stroke-width: 0px;"/>
  <path d="M420.84,48.3v-.62c1.01-.07,1.85-.2,2.52-.36.67-.17,1.01-.55,1.01-1.15v-14c0-1.08-.08-2.09-.22-3.02-.15-.93-.42-1.74-.81-2.41-.39-.67-.92-1.19-1.6-1.57-.67-.37-1.53-.56-2.58-.56-1.34,0-2.48.24-3.42.73-.93.49-1.68,1.14-2.24,1.96-.08.11-.18.35-.31.7-.13.35-.2.68-.2.98v17.19c0,.34.09.6.28.78.19.19.43.33.73.42s.63.16,1.01.2c.37.04.75.09,1.12.17v.56h-11.14v-.56c.86-.07,1.63-.21,2.32-.42.69-.2,1.04-.66,1.04-1.37V14.14c0-.3-.03-.52-.08-.67-.06-.15-.21-.32-.48-.5-.3-.26-.7-.51-1.2-.76-.5-.24-1-.51-1.48-.81v-.34l7.5-3.42h.45l-.17,19.43.11.06c.26-.52.66-1.12,1.2-1.79.54-.67,1.22-1.31,2.04-1.9.82-.6,1.76-1.11,2.82-1.54,1.06-.43,2.22-.64,3.49-.64s2.26.22,3.1.64c.84.43,1.51,1.03,2.01,1.79.5.77.86,1.67,1.06,2.72.2,1.05.31,2.18.31,3.42v16.52c0,.26.11.49.34.67.22.19.5.33.84.42.34.09.69.17,1.06.22.37.06.73.1,1.06.14v.5h-11.48Z" style="fill: #fff; stroke-width: 0px;"/>
  <path d="M433.89,48.3v-.62c1.72-.11,2.86-.29,3.42-.53.56-.24.84-.66.84-1.26V13.69c0-.3-.03-.52-.08-.67-.06-.15-.22-.32-.48-.5-.34-.19-.84-.48-1.51-.87s-1.23-.68-1.68-.87v-.34l8.01-2.63h.39v38.36c0,.37.08.65.25.84.17.19.42.32.76.39.34.08.76.12,1.29.14.52.02,1.14.07,1.85.14v.62h-13.05Z" style="fill: #fff; stroke-width: 0px;"/>
  <path d="M473.37,44.88c-.3.67-.69,1.28-1.18,1.82-.49.54-1.06.95-1.71,1.23-.65.28-1.37.42-2.16.42-1.27,0-2.4-.37-3.39-1.12-.99-.75-1.48-2.05-1.48-3.92l-.11-.06c-.3.49-.7,1.03-1.2,1.62-.5.6-1.1,1.16-1.79,1.68-.69.52-1.46.94-2.3,1.26-.84.32-1.76.48-2.77.48-.6,0-1.2-.08-1.82-.25s-1.18-.47-1.68-.9c-.5-.43-.92-.98-1.23-1.65-.32-.67-.48-1.49-.48-2.46,0-1.04.42-2.05,1.26-3.02s1.88-1.85,3.11-2.63c1.23-.78,2.32-1.46,3.28-2.02s1.78-1.04,2.49-1.43c.71-.39,1.33-.73,1.88-1.01.54-.28,1-.53,1.37-.76v-5.77c0-.07-.07-.25-.2-.53-.13-.28-.36-.57-.67-.87-.32-.3-.76-.57-1.32-.81-.56-.24-1.29-.36-2.18-.36-.6,0-1.19.1-1.76.31-.58.21-1.09.47-1.54.78-.45.32-.8.64-1.06.95-.26.32-.39.59-.39.81v2.52c0,.52-.27.99-.81,1.4-.54.41-1.13.62-1.76.62-.6,0-1.11-.21-1.54-.64-.43-.43-.64-.92-.64-1.48,0-.45.11-.86.34-1.23.22-.37.5-.71.84-1.01.34-.3.7-.56,1.09-.78.39-.22.74-.43,1.04-.62.97-.56,1.96-1.1,2.97-1.62,1.01-.52,1.97-.97,2.88-1.34.92-.37,1.75-.67,2.52-.9.76-.22,1.39-.34,1.88-.34.97,0,1.88.25,2.74.76.86.5,1.47,1.13,1.85,1.88.15.26.24.72.28,1.37.04.65.06,1.3.06,1.93,0,1.34,0,2.56-.03,3.64-.02,1.08-.03,2.13-.03,3.14s0,2.04-.03,3.11c-.02,1.06-.03,2.23-.03,3.5,0,1.68.29,2.79.87,3.33.58.54,1.24.81,1.99.81.86,0,1.49-.18,1.9-.53.41-.35.69-.81.84-1.37h.34c-.04.71-.21,1.4-.5,2.07ZM463.46,33.07c-.67.49-1.51,1-2.52,1.54-1.01.54-1.99,1.13-2.94,1.76-.95.64-1.77,1.34-2.46,2.1-.69.77-1.04,1.63-1.04,2.6s.34,1.85,1.01,2.63c.67.78,1.55,1.18,2.63,1.18.97,0,1.83-.11,2.58-.34.75-.22,1.44-.65,2.07-1.29.45-.41.67-.93.67-1.57v-8.62Z" style="fill: #fff; stroke-width: 0px;"/>
  <path d="M490.73,48.3v-.62c1.01-.07,1.81-.2,2.41-.36.6-.17.9-.55.9-1.15v-14.11c0-2.16-.41-3.91-1.23-5.24-.82-1.32-2.2-1.99-4.14-1.99-1.23,0-2.26.26-3.08.78-.82.52-1.74,1.29-2.74,2.3v18.37c.08.37.21.64.39.81.19.17.41.29.67.36.26.08.56.12.9.14.34.02.69.07,1.06.14v.56h-10.81v-.56c.86-.07,1.6-.24,2.21-.5.62-.26.92-.69.92-1.29v-19.26c0-.3-.03-.52-.08-.67-.06-.15-.22-.32-.48-.5-.34-.19-.73-.4-1.18-.64-.45-.24-.9-.46-1.34-.64v-.34l7.34-2.63h.34v6.05l.11.06c.41-.63.92-1.32,1.53-2.04.61-.73,1.31-1.39,2.09-1.99.78-.6,1.64-1.09,2.57-1.48.93-.39,1.9-.59,2.9-.59,2.16,0,3.81.8,4.97,2.41,1.15,1.61,1.73,3.68,1.73,6.22v16.46c0,.26.12.49.36.67.24.19.53.33.87.42.34.09.7.17,1.09.22.39.06.76.1,1.09.14v.5h-11.37Z" style="fill: #fff; stroke-width: 0px;"/>
</svg>