<?xml version="1.0" encoding="utf-8"?>
<!-- Generator: Adobe Illustrator 28.2.0, SVG Export Plug-In . SVG Version: 6.00 Build 0)  -->
<svg version="1.1" id="Layer_1" xmlns="http://www.w3.org/2000/svg" xmlns:xlink="http://www.w3.org/1999/xlink" x="0px" y="0px"
	 viewBox="0 0 10.3 8.1" style="enable-background:new 0 0 10.3 8.1;" xml:space="preserve">
<style type="text/css">
	.st0{fill-rule:evenodd;clip-rule:evenodd;fill:#FFFFFF;}
</style>
<path class="st0" d="M10.3,2.5c0-0.1,0-0.2,0-0.3s0-0.2,0-0.3C10.2,1.5,10,1.1,9.7,0.8C9.5,0.6,9.3,0.4,9.1,0.3
	C9,0.2,8.9,0.2,8.7,0.1C8.3,0,7.9,0,7.6,0H7.2H2.5H0.1C0,0,0,0.1,0,0.1v0.3c0,0.1,0,0.1,0.1,0.1h0.1c0.1,0,0.1,0,0.2,0s0.3,0,0.4,0
	s0.1,0,0.2,0.1c0,0.1,0.1,0.2,0.1,0.3c0,0.2,0,0.3,0,0.5v1.5c0,0.1,0,0.2,0,0.3s0,0.2,0,0.3s0,0.2-0.1,0.3c-0.1,0-0.2,0.1-0.3,0.1
	l0,0c-0.1,0-0.2,0-0.2,0s-0.2,0-0.3,0H0.1H0V4v0.3c0,0.1,0,0.1,0.1,0.1h0.1c0.1,0,0.2,0,0.3,0h0.2h0.2l0,0c0.1,0,0.2,0,0.2,0.1v0.1
	l0,0c0,0.1,0,0.2,0,0.3c0,0.1,0,0.2,0,0.3v1c0,0.1,0,0.1,0,0.2c0,0.2,0,0.4,0,0.6S1,7.3,0.9,7.4C0.8,7.5,0.6,7.5,0.5,7.5H0.4H0.3
	H0.2H0.1l0,0c0,0,0,0,0,0.1c0,0,0,0,0,0.1V8c0,0,0,0,0,0.1h0.1h7.1c0.2,0,0.3,0,0.5,0h0.1c0.2,0,0.4,0,0.6,0C8.5,8,8.6,8,8.7,8
	C8.9,7.9,9,7.9,9.1,7.8c0.2-0.1,0.4-0.3,0.6-0.4C10,7,10.2,6.6,10.3,6.2c0-0.1,0-0.2,0-0.3c0-0.1,0-0.2,0-0.3
	C10.2,5,9.9,4.5,9.4,4.2L9.1,4.1l0.3-0.2C9.9,3.5,10.2,3,10.3,2.5z M9.4,5c0.2,0.3,0.4,0.6,0.4,1S9.7,6.7,9.4,7
	C9.2,7.1,9.1,7.2,8.9,7.3c-0.1,0-0.1,0.1-0.2,0.1C8.3,7.5,7.9,7.5,7.4,7.5H7.1H2c-0.1,0-0.2,0-0.3-0.1C1.6,7.3,1.6,7.2,1.6,7.1V4.6
	c0-0.1,0.1-0.2,0.2-0.2H4c0.5,0,1.1,0,1.7,0h1.4h0.3c0.4,0,0.8,0,1.1,0.1C8.9,4.5,9.1,4.7,9.4,5L9.4,5z M8.9,3.5
	C8.5,3.8,8,3.8,7.6,3.8c-1.2,0-2.3,0-3.3,0H1.8c-0.1,0-0.2-0.1-0.2-0.2c0-0.5,0-1.1,0-1.5V0.9c0-0.2,0.1-0.3,0.3-0.3h2.7
	c0.2,0,0.5,0,0.7,0l0,0c0.4,0,0.8,0,1.2,0c0.2,0,0.4,0,0.6,0l0,0c0.2,0,0.5,0,0.7,0c0.4,0,0.8,0.1,1.2,0.3c0.3,0.2,0.6,0.5,0.7,0.9
	c0,0.1,0.1,0.2,0.1,0.4l0,0c0,0.4-0.2,0.7-0.4,0.9C9.2,3.3,9.1,3.4,8.9,3.5z"/>
</svg>
