<?xml version="1.0" encoding="utf-8"?>
<!-- Generator: Adobe Illustrator 28.2.0, SVG Export Plug-In . SVG Version: 6.00 Build 0)  -->
<svg version="1.1" id="layer" xmlns="http://www.w3.org/2000/svg" xmlns:xlink="http://www.w3.org/1999/xlink" x="0px" y="0px"
	 viewBox="0 0 600.8 500" style="enable-background:new 0 0 600.8 500;" xml:space="preserve">
<style type="text/css">
	.st0{fill:#FFFFFF;}
</style>
<path class="st0" d="M553.9,12.9c-14.8,1.1-25.9,6.6-33.1,16.4c-7.2,9.9-16.4,33.5-27.4,70.9l-80.9,276.7h-12.2l-111.9-303
	l-97.8,303h-13l-89-286.2c-7.9-26-13.7-43.3-17.2-51.9s-8.1-14.9-13.8-19c-5.7-4.1-15.1-6.4-28.2-6.9V0.4h138v12.4
	c-16.6,1.1-27.3,3.5-32,7.2s-7,8.9-7,15.6c0,5.9,3.8,21.2,11.4,45.8l65.6,214.2l76.1-234.3c0.8-7-0.2-14.2-2.5-21.3
	c-3.2-9.8-9.2-21-19.6-24.9c-5.3-2-11.3-2.4-16.9-2.6V0h124.3v12.5c0-0.7-20.1,2.5-21.8,3.1c-15.1,5.5-14.9,18.2-11.6,30.7l91,249.3
	l56.3-195.1c7.4-26.4,11.1-43.7,11.1-51.8c0-23.8-12.7-35.8-38.2-35.8V0.4h100.3V12.9z M156.8,488.7c-0.7,4-2.4,6.1-5.1,6.1
	c-1.6,0-2.7-0.7-3.2-2c-0.5-1.4-0.8-4.4-0.8-9.2v-20.4c0-4.3-0.5-7.5-1.4-9.6s-2.8-4-5.7-5.6s-6.9-2.5-12.1-2.5
	c-7,0-12.2,1.4-15.6,4c-3.3,2.7-5,5.2-5,7.6c0,2.4,1.3,3.6,3.8,3.6c2.8,0,4.5-2.1,5.2-6.3c0.7-4.1,4.2-6.2,10.3-6.2
	c3.1,0,5.6,0.6,7.5,1.8s3.1,2.6,3.5,4.2c0.5,1.6,0.7,4.1,0.7,7.6v2.5l-9.6,3.9c-7.3,3-13,6.1-17.2,9.2c-4.1,3.2-6.2,6.9-6.2,11.1
	c0,3.2,1.2,5.9,3.7,7.8c2.5,2,5.4,3,8.8,3c2.7,0,5.7-0.7,9.1-2.2c3.4-1.5,7.1-3.7,11.3-6.6c0.5,2.9,1.6,5.1,3.2,6.6
	c1.6,1.5,3.8,2.2,6.6,2.2c6.5,0,9.9-3.5,10.3-10.5L156.8,488.7 M139,487.1c-3.2,2.5-6,4.5-8.6,5.7c-2.5,1.3-4.8,1.9-6.7,1.9
	c-2.2,0-3.9-0.8-5.3-2.4c-1.3-1.6-2-3.7-2-6.3c0-6.6,5.3-12,16-16.3l6.7-2.7L139,487.1L139,487.1z M193.8,447.4h-15.2v-15.8h-2
	c-0.7,5-2.4,8.8-5.1,11.6c-2.7,2.8-5.7,4.2-9,4.3v2.8h7.3v28.6c0,5.9,0.3,10,0.8,12.3s2,4.4,4.2,6.1c2.2,1.7,4.9,2.6,7.8,2.6
	c2.5,0,5.1-0.7,7.6-2.1c2.5-1.4,4.4-3.4,5.6-6.1l-2-1.2c-2.2,3.4-4.7,5-7.7,5c-1.5,0-2.9-0.5-4.3-1.5c-1.3-1-2.2-2.3-2.6-3.9
	c-0.4-1.6-0.6-4.8-0.6-9.5v-30.5h15.2V447.4z M246.4,464.6c-0.2-4.7-2.1-9.1-5.7-13.1c-3.6-4.1-8.7-6.1-15.4-6.1
	c-7,0-12.9,2.6-17.6,7.9c-4.7,5.3-7.1,11.9-7.1,19.9c0,5.6,1.2,10.4,3.7,14.4c2.4,3.9,5.5,7,9.4,9.1c3.8,2.2,7.8,3.2,12.1,3.2
	c4.6,0,8.9-1.2,12.8-3.6c3.9-2.4,6.5-5.7,7.8-9.8h-2.9c-3.1,6.7-8.5,10.1-16,10.1c-5.5,0-9.7-2.2-12.5-6.7c-2.8-4.4-4.1-11.1-4.1-20
	c0-1.2,0.1-3,0.2-5.4L246.4,464.6 M211.4,462.1c1.4-9.3,5.9-14,13.4-14c3.1,0,5.7,1,7.8,3c2.1,2,3.2,4.8,3.2,8.4
	c0,0.7-0.1,1.6-0.2,2.5L211.4,462.1L211.4,462.1z M272.1,458.3c-0.1-5.3-0.8-9.6-2-12.9c-6.2,2-11.2,3.2-15.1,3.6v2.8h1.3
	c2.6,0,4.4,0.4,5.5,1.1c1,0.8,1.6,1.8,1.8,3.2c0.1,1.4,0.2,4.8,0.2,10.2v14.3c0,5.9-0.1,9.4-0.3,10.6c-0.2,1.3-0.8,2.2-1.9,2.9
	s-2.8,1-5.3,1H255v2.8h26.9v-2.8h-1.8c-2.6,0-4.5-0.3-5.5-1.1c-1.1-0.7-1.6-1.8-1.8-3.2c-0.2-1.4-0.2-4.8-0.2-10.2v-9
	c0-4.5,0.3-8.1,1.1-10.7c0.7-2.6,2.3-5.1,4.7-7.5c2.5-2.4,4.6-3.6,6.3-3.6c1.5,0,2.6,1,3.4,3.1c1.1,3,2.6,4.6,4.7,4.6
	c1.1,0,2.1-0.4,2.9-1.3c0.8-0.9,1.2-1.9,1.2-3.1c0-1.8-0.8-3.5-2.3-5.2c-1.6-1.7-3.7-2.5-6.4-2.5c-3,0-6.1,1.2-9.2,3.7
	C275.8,451.6,273.5,454.7,272.1,458.3 M306,499.6c0.7-2.3,1.1-3.4,2.2-4.6c3.6,3.8,8.3,5,12.9,5c4.4,0,8-1.4,10.9-4.1
	c2.9-2.8,4.4-6.3,4.4-10.7c0-2.8-0.8-5.7-2.4-8.7s-5.9-6.1-12.8-9.3c-4.7-2.1-7.8-4-9.4-5.6c-1.7-1.6-2.5-3.5-2.5-5.7
	c0-2,0.8-3.8,2.3-5.3s3.5-2.3,6-2.3c3.2,0,6,1.3,8.4,4s3.9,5.9,4.8,9.6h2.3v-15.6h-2.3c-1,2.4-1.4,3.3-2,3.9
	c-2.9-3.6-6.9-4.8-11.3-4.8c-4.3,0-7.7,1.5-10.1,4.5s-3.6,6.2-3.6,9.5c0,3.5,1.1,6.4,3.3,8.8c2.2,2.4,5.9,4.9,11,7.4
	c4.8,2.4,8.1,4.4,9.8,6.1c1.6,1.7,2.5,3.8,2.5,6.5c0,2.2-0.8,4.3-2.3,6.2c-1.6,1.9-3.9,2.8-7,2.8c-7.2,0-12.2-4.8-14.9-14.4h-2.4
	v16.8H306z M375.3,447.4h-15.2v-15.8h-2c-0.8,5-2.5,8.8-5.1,11.6c-2.7,2.8-5.7,4.2-9.1,4.3v2.8h7.3v28.6c0,5.9,0.3,10,0.8,12.3
	s1.9,4.4,4.2,6.1c2.2,1.7,4.9,2.6,7.8,2.6c2.6,0,5.1-0.7,7.6-2.1c2.5-1.4,4.4-3.4,5.6-6.1l-2-1.2c-2.2,3.4-4.8,5-7.7,5
	c-1.5,0-3-0.5-4.3-1.5s-2.2-2.3-2.6-3.9c-0.4-1.6-0.6-4.8-0.6-9.5v-30.5h15.2v-2.7H375.3z M382,472.6c0,8.4,2.6,15,7.8,20
	c5.2,4.9,11.6,7.4,19,7.4s13.8-2.4,19.1-7.3c5.2-4.9,7.9-11.6,7.9-20.1c0-7.7-2.6-14.1-7.8-19.3c-5.2-5.2-11.6-7.8-19.2-7.8
	c-7.5,0-13.9,2.6-19.1,7.8C384.6,458.5,382,464.9,382,472.6 M392.2,472.9c0-8.9,1.4-15.3,4.3-19c2.9-3.8,7-5.7,12.4-5.7
	s9.5,1.9,12.4,5.7c2.8,3.8,4.2,10.1,4.2,19c0,9-1.4,15.3-4.3,18.8c-2.9,3.6-7,5.4-12.4,5.4c-5.3,0-9.3-1.8-12.3-5.4
	C393.7,488.2,392.2,481.9,392.2,472.9 M458.1,445.5c-4.7,1.4-9.4,2.3-13.9,2.8v2.8c3,0,5,0.3,6.1,0.9c1.1,0.7,1.7,1.6,2,2.9
	c0.2,1.3,0.3,4.8,0.3,10.7v15c0,6.2-0.1,9.8-0.4,11s-1,2-2.1,2.6s-3.1,0.9-5.9,0.9v2.8h25.6v-2.8c-3,0-5-0.3-6.1-1
	c-1.1-0.6-1.8-1.6-2-2.9c-0.2-1.3-0.3-4.8-0.3-10.7v-20.6c2.4-3.6,5-6.3,7.7-8.1c2.8-1.8,5.6-2.7,8.6-2.7c2.6,0,4.8,0.7,6.5,2
	s2.7,2.8,3.1,4.5c0.4,1.7,0.6,4.5,0.6,8.6v16.3c0,5.6,0,9-0.2,10.2c-0.1,1.1-0.6,2.2-1.5,3c-0.9,0.9-2.8,1.3-5.8,1.3h-1.2v2.8H505
	V495c-2.9,0-4.9-0.3-6-1c-1.1-0.6-1.7-1.6-1.9-2.9c-0.2-1.3-0.3-4.8-0.3-10.7v-15.8c0-4.7-0.4-8.3-1.1-10.7c-0.8-2.4-2.4-4.5-5-6.2
	s-5.8-2.5-9.9-2.5c-3.5,0-6.9,0.9-10.2,2.6c-3.2,1.7-6.3,4.3-9.3,7.8c-0.1-4.4-0.7-7.8-1.6-10.4h-1.6 M558,464.6
	c-0.2-4.7-2.1-9.1-5.8-13.1c-3.6-4.1-8.8-6.1-15.4-6.1c-7,0-12.9,2.6-17.6,7.9c-4.7,5.3-7,11.9-7,19.9c0,5.6,1.2,10.4,3.6,14.4
	c2.4,3.9,5.5,7,9.3,9.1c3.8,2.2,7.9,3.2,12.1,3.2c4.6,0,8.9-1.2,12.8-3.6c3.9-2.4,6.5-5.7,7.9-9.8h-3c-3.1,6.7-8.4,10.1-15.9,10.1
	c-5.5,0-9.7-2.2-12.5-6.7c-2.8-4.4-4.1-11.1-4.1-20c0-1.2,0.1-3,0.2-5.4L558,464.6 M523,462.1c1.4-9.3,5.9-14,13.4-14
	c3.1,0,5.7,1,7.8,3s3.2,4.8,3.2,8.4c0,0.7-0.1,1.6-0.2,2.5L523,462.1L523,462.1z M570.4,499.6c0.7-2.3,0.8-3,1.9-4.3
	c3.6,3.8,8.5,4.7,13.2,4.7c4.4,0,8-1.4,10.9-4.1c2.9-2.8,4.4-6.3,4.4-10.7c0-2.8-0.8-5.7-2.4-8.7c-1.6-3-5.9-6.1-12.8-9.3
	c-4.6-2.1-7.8-4-9.4-5.6c-1.7-1.6-2.5-3.5-2.5-5.7c0-2,0.7-3.8,2.3-5.3c1.5-1.5,3.5-2.3,6-2.3c3.2,0,6,1.3,8.4,4
	c2.3,2.7,3.9,5.9,4.8,9.6h2.3v-15.6h-2.3c-1,2.4-1.2,3.1-1.8,3.7c-2.9-3.6-7.1-4.6-11.5-4.6c-4.3,0-7.7,1.5-10.1,4.5
	c-2.4,3-3.6,6.2-3.6,9.5c0,3.5,1.1,6.4,3.3,8.8c2.2,2.4,5.9,4.9,11,7.4c4.8,2.4,8.1,4.4,9.8,6.1c1.6,1.7,2.5,3.8,2.5,6.5
	c0,2.2-0.8,4.3-2.3,6.2s-3.9,2.8-7,2.8c-7.2,0-12.2-4.8-15-14.4h-2.4v16.8H570.4z M116.8,414.8H94.5v2.8c5.7,0,8.5,2.7,8.5,8
	c0,1.8-0.8,5.6-2.5,11.5L88,480.6l-20.3-55.5c-0.7-2.8-0.8-5.6,2.6-6.8l4.8-0.7v-2.8H47.5v2.8c1.2,0.1,2.6,0.1,3.8,0.6
	c2.3,0.9,3.6,3.3,4.4,5.5c0.5,1.6,0.7,3.2,0.6,4.8l-17.1,52.1l-14.7-47.7c-1.7-5.5-2.5-8.9-2.5-10.2c0-1.5,0.5-2.7,1.5-3.5
	c1.1-0.8,3.4-1.4,7.1-1.6v-2.8H0v2.8c2.9,0.1,5,0.6,6.3,1.5c1.3,0.9,2.3,2.3,3.1,4.2c0.8,1.9,2.1,5.8,3.8,11.6L33,498.6h2.9
	l21.8-67.5l24.9,67.5h2.7l18-61.6c2.5-8.3,4.5-13.6,6.1-15.8c1.6-2.2,4.1-3.4,7.4-3.7V414.8z"/>
</svg>
