<?xml version="1.0" encoding="UTF-8"?>
<svg id="Layer_1" data-name="Layer 1" xmlns="http://www.w3.org/2000/svg" viewBox="0 0 165 60.7">
  <g id="Layer_2" data-name="Layer 2">
    <rect y="17.7" width="165" height="43" style="fill: #ae4247; stroke-width: 0px;"/>
    <polygon points="147.5 0 165 17.7 147.5 17.7 147.5 0" style="fill: #681a20; stroke-width: 0px;"/>
  </g>
  <g>
    <path d="M40.09,34.16c.6-.1,1.39-.19,2.4-.19,1.23,0,2.14.29,2.71.8.53.46.85,1.16.85,2.02s-.26,1.56-.75,2.07c-.66.7-1.74,1.06-2.96,1.06-.37,0-.72-.01-1-.09v3.87h-1.25v-9.55ZM41.34,38.82c.27.07.62.1,1.03.1,1.51,0,2.42-.73,2.42-2.07s-.9-1.89-2.28-1.89c-.54,0-.96.04-1.18.1v3.76Z" style="fill: #fff; stroke-width: 0px;"/>
    <path d="M47.45,38.94c0-.82-.01-1.52-.06-2.17h1.1l.04,1.36h.06c.32-.93,1.08-1.52,1.92-1.52.14,0,.24.01.36.04v1.19c-.13-.03-.26-.04-.43-.04-.89,0-1.52.67-1.69,1.62-.03.17-.06.37-.06.59v3.7h-1.25v-4.78Z" style="fill: #fff; stroke-width: 0px;"/>
    <path d="M52.7,40.47c.03,1.71,1.12,2.41,2.38,2.41.9,0,1.45-.16,1.92-.36l.22.9c-.44.2-1.21.43-2.31.43-2.14,0-3.41-1.41-3.41-3.5s1.23-3.74,3.26-3.74c2.27,0,2.87,1.99,2.87,3.27,0,.26-.03.46-.04.59h-4.88ZM56.4,39.57c.01-.8-.33-2.05-1.75-2.05-1.28,0-1.84,1.18-1.94,2.05h3.69Z" style="fill: #fff; stroke-width: 0px;"/>
    <path d="M62.52,39.37v.93h-3.54v-.93h3.54Z" style="fill: #fff; stroke-width: 0px;"/>
    <path d="M70.53,40.19c0,2.57-1.78,3.69-3.46,3.69-1.88,0-3.33-1.38-3.33-3.57,0-2.32,1.52-3.69,3.44-3.69s3.34,1.45,3.34,3.57ZM65.03,40.26c0,1.52.87,2.67,2.11,2.67s2.11-1.13,2.11-2.7c0-1.18-.59-2.67-2.08-2.67s-2.14,1.38-2.14,2.7Z" style="fill: #fff; stroke-width: 0px;"/>
    <path d="M72.13,38.94c0-.82-.01-1.52-.06-2.17h1.1l.04,1.36h.06c.32-.93,1.08-1.52,1.92-1.52.14,0,.24.01.36.04v1.19c-.13-.03-.26-.04-.43-.04-.89,0-1.52.67-1.69,1.62-.03.17-.06.37-.06.59v3.7h-1.25v-4.78Z" style="fill: #fff; stroke-width: 0px;"/>
    <path d="M82.67,33.53v8.39c0,.62.01,1.32.06,1.79h-1.13l-.06-1.2h-.03c-.39.77-1.23,1.36-2.37,1.36-1.68,0-2.97-1.42-2.97-3.53-.01-2.31,1.42-3.73,3.11-3.73,1.06,0,1.78.5,2.09,1.06h.03v-4.15h1.26ZM81.41,39.6c0-.16-.01-.37-.06-.53-.19-.8-.88-1.46-1.82-1.46-1.31,0-2.08,1.15-2.08,2.68,0,1.41.69,2.57,2.05,2.57.85,0,1.62-.56,1.85-1.51.04-.17.06-.34.06-.54v-1.21Z" style="fill: #fff; stroke-width: 0px;"/>
    <path d="M85.47,40.47c.03,1.71,1.12,2.41,2.38,2.41.9,0,1.45-.16,1.92-.36l.21.9c-.44.2-1.2.43-2.31.43-2.14,0-3.41-1.41-3.41-3.5s1.23-3.74,3.26-3.74c2.27,0,2.87,1.99,2.87,3.27,0,.26-.03.46-.04.59h-4.88ZM89.17,39.57c.01-.8-.33-2.05-1.75-2.05-1.28,0-1.84,1.18-1.94,2.05h3.69Z" style="fill: #fff; stroke-width: 0px;"/>
    <path d="M91.96,38.94c0-.82-.01-1.52-.06-2.17h1.1l.04,1.36h.06c.32-.93,1.08-1.52,1.92-1.52.14,0,.24.01.36.04v1.19c-.13-.03-.26-.04-.43-.04-.89,0-1.52.67-1.69,1.62-.03.17-.06.37-.06.59v3.7h-1.25v-4.78Z" style="fill: #fff; stroke-width: 0px;"/>
    <path d="M99.74,43.71v-9.67h1.36l3.1,4.89c.72,1.13,1.28,2.15,1.74,3.14h.03c-.12-1.31-.14-2.48-.14-3.99v-4.04h1.18v9.67h-1.26l-3.07-4.91c-.67-1.08-1.32-2.18-1.81-3.23h-.04c.07,1.23.1,2.4.1,4v4.13h-1.18Z" style="fill: #fff; stroke-width: 0px;"/>
    <path d="M115.42,40.19c0,2.57-1.78,3.69-3.46,3.69-1.88,0-3.33-1.38-3.33-3.57,0-2.32,1.52-3.69,3.44-3.69s3.34,1.45,3.34,3.57ZM109.91,40.26c0,1.52.88,2.67,2.11,2.67s2.11-1.13,2.11-2.7c0-1.18-.59-2.67-2.08-2.67s-2.14,1.38-2.14,2.7Z" style="fill: #fff; stroke-width: 0px;"/>
    <path d="M117.41,36.77l.92,3.53c.2.77.39,1.49.52,2.21h.04c.16-.7.39-1.45.62-2.2l1.13-3.54h1.06l1.08,3.47c.26.83.46,1.56.62,2.27h.04c.12-.7.3-1.43.53-2.25l.99-3.49h1.25l-2.24,6.94h-1.15l-1.06-3.31c-.24-.77-.45-1.46-.62-2.28h-.03c-.17.83-.39,1.55-.63,2.29l-1.12,3.3h-1.15l-2.09-6.94h1.29Z" style="fill: #fff; stroke-width: 0px;"/>
  </g>
</svg>