<?xml version="1.0" encoding="utf-8"?>
<!-- Generator: Adobe Illustrator 28.2.0, SVG Export Plug-In . SVG Version: 6.00 Build 0)  -->
<svg version="1.1" xmlns="http://www.w3.org/2000/svg" xmlns:xlink="http://www.w3.org/1999/xlink" x="0px" y="0px"
	 viewBox="0 0 165 60.7" style="enable-background:new 0 0 165 60.7;" xml:space="preserve">
<style type="text/css">
	.st0{fill:#AE4247;}
	.st1{fill:#681A20;}
	.st2{fill:#FFFFFF;}
</style>
<g id="Layer_1">
</g>
<g id="Layer_2">
	<rect y="17.7" class="st0" width="165" height="43"/>
	<polygon class="st1" points="147.5,0 165,17.7 147.5,17.7 	"/>
	<g>
		<path class="st2" d="M46.6,43.3c-0.5,0.2-1.4,0.5-2.6,0.5c-2.8,0-5-1.8-5-5.1c0-3.1,2.1-5.3,5.2-5.3c1.2,0,2,0.3,2.4,0.4l-0.3,1.1
			c-0.5-0.2-1.2-0.4-2-0.4c-2.4,0-3.9,1.5-3.9,4.1c0,2.5,1.4,4,3.9,4c0.8,0,1.6-0.2,2.1-0.4L46.6,43.3z"/>
		<path class="st2" d="M54.6,39.9c0,2.7-1.8,3.8-3.6,3.8c-1.9,0-3.5-1.4-3.5-3.7c0-2.4,1.6-3.8,3.6-3.8
			C53.2,36.2,54.6,37.7,54.6,39.9z M48.9,40c0,1.6,0.9,2.8,2.2,2.8c1.2,0,2.2-1.2,2.2-2.8c0-1.2-0.6-2.8-2.2-2.8
			C49.5,37.2,48.9,38.6,48.9,40z"/>
		<path class="st2" d="M56.2,38.4c0-0.7,0-1.4-0.1-1.9h1.1l0.1,1.2h0c0.4-0.7,1.1-1.3,2.3-1.3c1,0,1.7,0.6,2,1.4h0
			c0.2-0.4,0.5-0.7,0.8-0.9c0.4-0.3,0.9-0.5,1.6-0.5c1,0,2.4,0.6,2.4,3.1v4.2h-1.3v-4.1c0-1.4-0.5-2.2-1.6-2.2
			c-0.7,0-1.3,0.6-1.5,1.2c-0.1,0.2-0.1,0.4-0.1,0.7v4.4h-1.3v-4.3c0-1.1-0.5-2-1.5-2c-0.8,0-1.4,0.7-1.6,1.3
			c-0.1,0.2-0.1,0.4-0.1,0.6v4.3h-1.3V38.4z"/>
		<path class="st2" d="M70.1,34.4c0,0.4-0.3,0.8-0.8,0.8c-0.5,0-0.8-0.4-0.8-0.8c0-0.5,0.3-0.8,0.8-0.8
			C69.8,33.6,70.1,33.9,70.1,34.4z M68.6,43.6v-7.2H70v7.2H68.6z"/>
		<path class="st2" d="M72.1,38.4c0-0.7,0-1.4-0.1-1.9h1.2l0.1,1.2h0c0.4-0.7,1.2-1.4,2.4-1.4c1,0,2.5,0.6,2.5,3.1v4.3h-1.3v-4.2
			c0-1.2-0.4-2.1-1.7-2.1c-0.9,0-1.5,0.6-1.8,1.3c-0.1,0.2-0.1,0.4-0.1,0.6v4.3h-1.3V38.4z"/>
		<path class="st2" d="M86.6,36.4c0,0.5-0.1,1.1-0.1,2v4.2c0,1.7-0.3,2.7-1,3.3c-0.7,0.7-1.7,0.9-2.6,0.9c-0.9,0-1.8-0.2-2.4-0.6
			l0.3-1c0.5,0.3,1.2,0.6,2.1,0.6c1.3,0,2.3-0.7,2.3-2.5v-0.8h0c-0.4,0.7-1.2,1.2-2.3,1.2c-1.8,0-3.1-1.5-3.1-3.5
			c0-2.4,1.6-3.8,3.2-3.8c1.2,0,1.9,0.7,2.2,1.2h0l0.1-1.1H86.6z M85.2,39.2c0-0.2,0-0.4-0.1-0.6c-0.2-0.8-0.9-1.4-1.8-1.4
			c-1.2,0-2.1,1.1-2.1,2.7c0,1.4,0.7,2.6,2.1,2.6c0.8,0,1.5-0.5,1.8-1.3c0.1-0.2,0.1-0.5,0.1-0.7V39.2z"/>
		<path class="st2" d="M91.7,42c0.6,0.4,1.4,0.7,2.3,0.7c1.3,0,2.1-0.7,2.1-1.7c0-0.9-0.5-1.5-1.9-2c-1.6-0.6-2.6-1.4-2.6-2.8
			c0-1.6,1.3-2.7,3.2-2.7c1,0,1.8,0.2,2.2,0.5L96.7,35c-0.3-0.2-1-0.5-1.9-0.5c-1.4,0-1.9,0.8-1.9,1.5c0,0.9,0.6,1.4,2,1.9
			c1.7,0.7,2.6,1.5,2.6,2.9c0,1.5-1.1,2.9-3.5,2.9c-1,0-2-0.3-2.6-0.6L91.7,42z"/>
		<path class="st2" d="M105.8,39.9c0,2.7-1.8,3.8-3.6,3.8c-1.9,0-3.5-1.4-3.5-3.7c0-2.4,1.6-3.8,3.6-3.8
			C104.4,36.2,105.8,37.7,105.8,39.9z M100.1,40c0,1.6,0.9,2.8,2.2,2.8c1.2,0,2.2-1.2,2.2-2.8c0-1.2-0.6-2.8-2.2-2.8
			C100.8,37.2,100.1,38.6,100.1,40z"/>
		<path class="st2" d="M114,39.9c0,2.7-1.8,3.8-3.6,3.8c-1.9,0-3.5-1.4-3.5-3.7c0-2.4,1.6-3.8,3.6-3.8C112.6,36.2,114,37.7,114,39.9
			z M108.3,40c0,1.6,0.9,2.8,2.2,2.8c1.2,0,2.2-1.2,2.2-2.8c0-1.2-0.6-2.8-2.2-2.8C108.9,37.2,108.3,38.6,108.3,40z"/>
		<path class="st2" d="M115.6,38.4c0-0.7,0-1.4-0.1-1.9h1.2l0.1,1.2h0c0.4-0.7,1.2-1.4,2.4-1.4c1,0,2.5,0.6,2.5,3.1v4.3h-1.3v-4.2
			c0-1.2-0.4-2.1-1.7-2.1c-0.9,0-1.5,0.6-1.8,1.3c-0.1,0.2-0.1,0.4-0.1,0.6v4.3h-1.3V38.4z"/>
		<path class="st2" d="M123.6,42.8c0-0.5,0.4-0.9,0.9-0.9c0.5,0,0.9,0.4,0.9,0.9c0,0.5-0.3,0.9-0.9,0.9
			C124,43.8,123.6,43.4,123.6,42.8z M124,40.7l-0.2-7.1h1.4l-0.2,7.1H124z"/>
	</g>
	<g>
	</g>
	<g>
	</g>
	<g>
	</g>
	<g>
	</g>
	<g>
	</g>
	<g>
	</g>
	<g>
	</g>
	<g>
	</g>
	<g>
	</g>
	<g>
	</g>
	<g>
	</g>
</g>
</svg>
