<svg width="130" height="48" viewBox="0 0 130 48" fill="none" xmlns="http://www.w3.org/2000/svg">
    <rect width="33.7037" height="48" fill="#DA2128"/>
    <path fill-rule="evenodd" clip-rule="evenodd"
          d="M19.0506 22.7912C19.2975 22.5429 19.4602 22.1624 19.4834 21.5731C19.5491 19.9153 18.2407 18.3145 15.4033 18.4218C13.8237 18.5053 10.9892 20.0265 11.0206 23.4528C11.0526 26.9078 13.7743 29.467 17.2566 29.6375C21.4505 29.8424 24.3977 26.9275 25.4225 24.3085C25.6276 23.7841 25.6886 23.696 25.8019 23.696C25.9314 23.696 26.0366 23.8959 25.8635 24.8317C25.2703 28.0367 22.645 32.125 17.0806 32.3124C11.3872 32.5043 7.41403 27.8566 7.71961 23.0266C8.06528 17.5644 12.8814 15.0938 16.6559 15.5318C20.6261 15.9924 22.7577 18.7904 22.4329 22.1065C22.1117 25.3888 18.9303 27.1911 16.3306 26.2491C13.6157 25.2658 13.8766 22.0845 15.4905 21.1142C16.8133 20.3189 18.9797 20.8924 18.7578 22.6755C18.7293 22.9036 18.878 22.9651 19.0506 22.7912ZM24.572 33.3352C24.8573 32.8571 24.7753 32.6534 24.6499 32.6534C24.536 32.6534 24.4558 32.7205 24.2682 32.8803C20.5251 36.0643 15.275 36.5001 10.9968 33.8545C10.1765 33.3476 9.44215 32.7567 8.79787 32.0838C8.60615 31.8834 8.51029 31.7892 8.40166 31.7892C8.29592 31.7892 8.21284 31.9241 8.37261 32.3028C9.06046 33.9318 10.2822 35.3537 11.9118 36.3613C16.1836 39.0023 21.942 37.7475 24.572 33.3352ZM8.46498 14.5282C8.17973 15.0046 8.25932 15.2089 8.38306 15.2095C8.49519 15.21 8.57536 15.1434 8.76185 14.9854C12.4811 11.8262 18.2564 11.6156 21.8618 14.0518C22.6525 14.5863 23.402 15.2072 24.0329 15.8846C24.2205 16.0861 24.3152 16.1815 24.4221 16.182C24.5261 16.1826 24.6133 16.0466 24.4547 15.6684C23.8522 14.2335 22.7856 12.6119 21.1839 11.593C16.8389 8.82552 11.0938 10.1339 8.46498 14.5282ZM11.4993 39.4827C11.8369 39.9111 12.5543 40.589 13.1975 40.9813C16.0325 42.708 19.8064 41.946 21.7718 39.5662C22.078 39.1954 21.8555 39.1914 21.7212 39.2535C18.6294 40.6878 15.1837 41.0011 11.5754 39.1751C11.4093 39.0915 11.2315 39.1434 11.4993 39.4827ZM21.497 8.38524C21.1693 7.95005 20.449 7.2727 19.8076 6.87759C16.983 5.13512 13.205 5.87625 11.2251 8.24469C10.8759 8.66239 11.1391 8.61893 11.2739 8.5574C14.3745 7.14062 17.8219 6.84654 21.4192 8.69287C21.5841 8.77754 21.8369 8.83737 21.497 8.38524Z"
          fill="white"/>
    <rect x="33.7031" width="96.2963" height="48" fill="black"/>
    <path d="M120.049 31.7411H107.286L119.896 15.4158V9.59961H97.6671V16.2581H110.315L97.5138 32.5433V38.3996H120.049V31.7411ZM94.3315 9.59961H87.1263V25.2832L77.047 9.59961H69.6884V38.3996H76.8549V21.7133L87.8153 38.3996H94.3315V9.59961ZM51.1662 22.6358V16.1779H55.3053C57.9502 16.1779 59.2138 17.3812 59.2138 19.4269C59.2138 21.3523 57.9486 22.6358 55.3053 22.6358H51.1662ZM51.1662 28.8531H53.5044L58.9088 38.3996H67.4938L61.1696 27.8503C64.6568 26.3662 66.6498 23.3177 66.6498 19.2264C66.6498 13.0492 62.4719 9.59961 55.6894 9.59961H43.6543V38.3996H51.1662V28.8531Z"
          fill="white"/>
</svg>
